# xmcd CD database file
#
# Track frame offsets:
#	150
#	5532
#	15302
#	29060
#	44855
#	65405
#	89687
#	108022
#	126472
#	144580
#	178745
#	206105
#	232650
#	248835
#	272435
#	295695
#
# Disc length: 4351 seconds
#
# Revision: 4
# Processed by: cddbd v1.5.1PL2 Copyright (c) Steve Scherf et al.
# Submitted via: CDex 1.51
#
DISCID=e510fd10
DTITLE=Alicia Keys - Unplugged
DYEAR=2005
DGENRE=Blues
TTITLE0=Intro Alicia's Prayer [Acapella]
TTITLE1=Karma
TTITLE2=Heartburn
TTITLE3=A Woman's Worth [Live]
TTITLE4=Unbreakable
TTITLE5=How Come You Don't Call Me
TTITLE6=If I Was Your Woman
TTITLE7=If I Ain't Got You
TTITLE8=Every Little Bit Hurts
TTITLE9=Streets Of New York [City Life]
TTITLE10=Wild Horses [featuring Adam Levine]
TTITLE11=Diary
TTITLE12=You Don't Know My Name
TTITLE13=Stolen Moments
TTITLE14=Fallin'
TTITLE15=Welcome To Jamrock [with Damian Marley, Mos Def, Comon and Friends]
EXTD=YEAR: 2005
EXTT0=
EXTT1=
EXTT2=
EXTT3=
EXTT4=
EXTT5=
EXTT6=
EXTT7=
EXTT8=
EXTT9=
EXTT10=
EXTT11=
EXTT12=
EXTT13=
EXTT14=
EXTT15=
PLAYORDER=
